<?xml version="1.0" standalone="no"?><!DOCTYPE svg PUBLIC "-//W3C//DTD SVG 1.1//EN" "http://www.w3.org/Graphics/SVG/1.1/DTD/svg11.dtd"><svg t="1534037274113" class="icon" style="" viewBox="0 0 1024 1024" version="1.1" xmlns="http://www.w3.org/2000/svg" p-id="861" xmlns:xlink="http://www.w3.org/1999/xlink" width="200" height="200"><defs><style type="text/css"></style></defs><path d="M56.9344 578.6624c0 147.626667 73.147733 285.184 193.194667 366.148267 3.106133 2.525867 77.585067 62.1568 188.791466 74.274133 29.3888 3.208533 31.1296 3.310933 61.7472 3.310933 244.667733 0 443.733333-199.0656 443.733334-443.733333a443.392 443.392 0 0 0-196.5056-368.5376l-0.273067 0.4096a33.826133 33.826133 0 0 0-20.343467-6.4512 34.372267 34.372267 0 0 0-32.9728 35.703467 33.723733 33.723733 0 0 0 15.6672 26.8288l-0.136533 0.170666a375.261867 375.261867 0 0 1 166.2976 311.876267c0 207.018667-168.448 375.466667-375.466667 375.466667-27.784533 0-27.784533 0-54.340266-2.901334-90.453333-9.864533-152.610133-58.948267-155.5456-61.201066a375.330133 375.330133 0 0 1-165.5808-311.364267c0-201.386667 159.5392-365.841067 358.843733-374.647467l-41.984 40.823467 0.8192 0.853333a33.8944 33.8944 0 0 0-15.2576 29.218134c0.750933 18.978133 16.725333 33.792 35.669333 33.041066a33.792 33.792 0 0 0 26.0096-14.472533l0.3072 0.341333 128.648534-124.996266-128.273067-128.4096-0.4096 0.4096a33.621333 33.621333 0 0 0-26.3168-11.400534c-18.944 0.750933-33.6896 16.725333-32.9728 35.703467a33.8944 33.8944 0 0 0 13.038933 25.156267l45.226667 45.2608C249.480533 142.0288 56.9344 338.056533 56.9344 578.6624" p-id="862" fill="#ffffff"></path></svg>